<?xml version="1.0" encoding="UTF-8" standalone="no"?>
<!DOCTYPE svg PUBLIC "-//W3C//DTD SVG 1.1//EN" "http://www.w3.org/Graphics/SVG/1.1/DTD/svg11.dtd">
<svg width="114px" height="44px" version="1.1" xmlns="http://www.w3.org/2000/svg" xmlns:xlink="http://www.w3.org/1999/xlink" xml:space="preserve" xmlns:serif="http://www.serif.com/" style="fill-rule:evenodd;clip-rule:evenodd;stroke-linejoin:round;stroke-miterlimit:2;">
    <g transform="matrix(0.37384,0,0,0.378153,-10.9681,-11.4645)">
        <path d="M334.282,88.494C334.282,120.625 295.67,146.672 248.038,146.672C200.408,146.672 161.795,120.625 161.795,88.494C161.795,56.363 200.408,30.317 248.038,30.317C295.67,30.317 334.282,56.363 334.282,88.494Z" style="fill:rgb(24,153,93);fill-rule:nonzero;"/>
        <path d="M201.827,88.494C201.827,120.625 163.215,146.672 115.583,146.672C67.951,146.672 29.339,120.625 29.339,88.494C29.339,56.363 67.951,30.317 115.583,30.317C163.215,30.317 201.827,56.363 201.827,88.494Z" style="fill:rgb(24,153,93);fill-rule:nonzero;"/>
        <path d="M73.18,81.915C68.056,80.53 64.946,79.5 64.946,76.869C64.946,74.685 67.128,73.274 70.504,73.274C73.875,73.274 77.283,74.548 80.098,76.861L80.175,76.923L80.507,70.469L80.509,70.438L80.481,70.423C77.78,68.933 75.074,67.941 70.644,67.941C67.439,67.941 64.52,68.763 62.426,70.257C60.127,71.897 58.912,74.248 58.912,77.056C58.912,82.606 63.532,84.974 67.406,85.983C72.584,87.373 76.249,88.606 76.249,91.823C76.249,94.531 73.851,96.214 69.99,96.214C66.12,96.214 62.181,94.549 59.183,91.648L59.108,91.576L58.492,98.454L58.489,98.483L58.514,98.499C61.591,100.585 65.478,101.686 69.757,101.686C73.369,101.686 76.462,100.803 78.7,99.129C81.105,97.332 82.376,94.693 82.376,91.496C82.376,86.612 79.368,83.479 73.18,81.915Z" style="fill:white;fill-rule:nonzero;"/>
        <path d="M105.314,88.5C105.314,83.692 102.41,80.503 98.269,80.503C95.793,80.503 93.413,81.598 91.7,84.12L91.7,93.212C93.413,95.402 95.745,96.496 98.317,96.496C102.41,96.496 105.314,93.307 105.314,88.5ZM111.264,88.5C111.264,97.115 105.695,101.637 99.173,101.637C96.032,101.637 93.556,100.495 91.7,98.876L91.7,108.935L85.798,108.935L85.798,75.838L91.7,75.838L91.7,78.599C93.651,76.694 96.317,75.362 99.601,75.362C105.98,75.362 111.264,79.884 111.264,88.5Z" style="fill:white;fill-rule:nonzero;"/>
        <path d="M133.258,85.644C133.258,82.549 131.306,80.169 127.688,80.169C124.261,80.169 121.31,82.502 120.549,86.358L133.162,86.358C133.21,86.119 133.258,85.929 133.258,85.644ZM138.303,90.403L120.453,90.403C121.12,94.355 124.023,96.496 128.022,96.496C131.449,96.496 133.877,95.688 136.59,94.116L136.923,99.305C134.543,100.638 131.496,101.637 127.594,101.637C120.358,101.637 114.408,97.115 114.408,88.595C114.408,80.693 120.406,75.362 127.546,75.362C134.971,75.362 138.827,79.836 138.827,86.358C138.827,87.691 138.684,88.976 138.303,90.403Z" style="fill:white;fill-rule:nonzero;"/>
        <path d="M166.535,98.972L167.154,93.26C169.534,95.307 172.866,96.496 176.341,96.496C178.817,96.496 180.53,95.449 180.53,93.688C180.53,88.976 166.916,91.402 166.916,82.93C166.916,77.837 171.296,75.362 176.532,75.362C180.198,75.362 183.005,76.266 185.148,77.599L184.862,82.882C182.339,81.169 179.292,80.312 176.579,80.312C174.485,80.312 172.771,81.121 172.771,82.74C172.771,86.691 186.433,84.787 186.433,93.497C186.433,98.876 181.72,101.637 176.246,101.637C172.2,101.637 168.916,100.59 166.535,98.972Z" style="fill:white;fill-rule:nonzero;"/>
        <path d="M206.237,94.307L206.237,90.499C204.094,89.833 202.096,89.404 200,89.404C196.954,89.404 195.146,90.975 195.146,93.26C195.146,95.592 197.146,97.069 199.763,97.069C202.239,97.069 204.189,96.211 206.237,94.307ZM212.091,85.453L212.091,101.161L206.237,101.161L206.237,98.591C204.284,100.447 201.667,101.637 198.62,101.637C192.956,101.637 189.482,98.21 189.482,93.449C189.482,88.357 193.432,85.263 199.334,85.263C201.572,85.263 203.714,85.644 206.237,86.405L206.237,85.644C206.237,81.788 203.333,80.074 199.715,80.074C197.002,80.074 193.908,81.074 191.718,82.835L191.481,77.694C193.384,76.409 196.908,75.362 200.762,75.362C207.331,75.362 212.091,78.408 212.091,85.453Z" style="fill:white;fill-rule:nonzero;"/>
        <path d="M212.616,75.838L219.033,75.838L226.306,91.831L233.532,75.838L239.949,75.838L227.922,101.161L224.642,101.161L212.616,75.838Z" style="fill:white;fill-rule:nonzero;"/>
        <path d="M257.997,85.644C257.997,82.549 256.045,80.169 252.428,80.169C249,80.169 246.05,82.502 245.288,86.358L257.903,86.358C257.949,86.119 257.997,85.929 257.997,85.644ZM263.042,90.403L245.193,90.403C245.86,94.355 248.763,96.496 252.761,96.496C256.187,96.496 258.616,95.688 261.329,94.116L261.661,99.305C259.282,100.638 256.236,101.637 252.333,101.637C245.098,101.637 239.148,97.115 239.148,88.595C239.148,80.693 245.145,75.362 252.285,75.362C259.711,75.362 263.567,79.836 263.567,86.358C263.567,87.691 263.423,88.976 263.042,90.403Z" style="fill:white;fill-rule:nonzero;"/>
        <path d="M285.234,76.457L284.424,81.883C282.995,81.121 281.663,80.836 280.188,80.836C277.57,80.836 275.19,82.169 273.476,84.929L273.476,101.161L267.574,101.161L267.574,75.838L273.476,75.838L273.476,79.265C275.142,76.932 277.57,75.362 280.902,75.362C282.521,75.362 283.9,75.742 285.234,76.457Z" style="fill:white;fill-rule:nonzero;"/>
        <path d="M286.933,98.972L287.55,93.26C289.931,95.307 293.263,96.496 296.738,96.496C299.213,96.496 300.926,95.449 300.926,93.688C300.926,88.976 287.314,91.402 287.314,82.93C287.314,77.837 291.692,75.362 296.928,75.362C300.593,75.362 303.402,76.266 305.544,77.599L305.258,82.882C302.735,81.169 299.689,80.312 296.976,80.312C294.881,80.312 293.168,81.121 293.168,82.74C293.168,86.691 306.828,84.787 306.828,93.497C306.828,98.876 302.116,101.637 296.642,101.637C292.597,101.637 289.312,100.59 286.933,98.972Z" style="fill:white;fill-rule:nonzero;"/>
        <path d="M162.216,94.228C160.177,95.697 158.106,96.496 155.68,96.496C151.587,96.496 148.017,93.641 148.017,88.5C148.017,83.359 151.587,80.503 155.68,80.503C158.107,80.503 160.178,81.302 162.219,82.737C162.476,80.967 162.865,79.224 163.352,77.505C161.241,76.268 158.681,75.361 155.062,75.361C147.826,75.361 141.971,80.265 141.971,88.5C141.971,96.735 147.826,101.637 155.062,101.637C158.701,101.637 161.241,100.629 163.312,99.333C162.843,97.654 162.466,95.954 162.216,94.228Z" style="fill:white;fill-rule:nonzero;"/>
    </g>
</svg>
